<svg width="64" height="64" viewBox="0 0 64 64" fill="none" xmlns="http://www.w3.org/2000/svg">
<path d="M43.2958 21.5499L50.7858 29.0399H6.12C5.32435 29.0399 4.56129 29.356 3.99867 29.9186C3.43606 30.4812 3.12 31.2443 3.12 32.0399C3.12 32.8356 3.43607 33.5986 3.99867 34.1612C4.56128 34.7238 5.32434 35.0399 6.12 35.0399H50.742L43.2937 42.472L43.2908 42.4749C42.732 43.037 42.4184 43.7974 42.4184 44.5899C42.4184 45.3825 42.732 46.1428 43.2908 46.7049L43.295 46.7091C43.8571 47.2679 44.6174 47.5815 45.41 47.5815C46.2026 47.5815 46.9629 47.2679 47.525 46.7091L47.5271 46.707L60.2407 33.9935C60.5052 33.7375 60.7159 33.4311 60.8604 33.0925C61.0063 32.7502 61.0815 32.382 61.0815 32.0099C61.0815 31.6379 61.0063 31.2696 60.8604 30.9274C60.716 30.5889 60.5055 30.2828 60.2413 30.027L47.55 17.2957C47.5496 17.2953 47.5492 17.2949 47.5488 17.2945C47.2702 17.0139 46.9388 16.7911 46.5737 16.639C46.2081 16.4867 45.816 16.4083 45.42 16.4083C45.024 16.4083 44.6318 16.4867 44.2663 16.639C43.902 16.7908 43.5712 17.013 43.2929 17.2928C43.0131 17.5711 42.7909 17.9019 42.6391 18.2662C42.4868 18.6318 42.4084 19.0239 42.4084 19.4199C42.4084 19.816 42.4868 20.2081 42.6391 20.5737C42.7911 20.9384 43.0136 21.2695 43.2939 21.548C43.2945 21.5487 43.2952 21.5493 43.2958 21.5499Z" stroke-width="2"/>
</svg>
