<svg width="4282" height="4282" viewBox="0 0 4282 4282" fill="none" xmlns="http://www.w3.org/2000/svg">
<path d="M2841.4 2398.98C2834.24 2361.8 2840.96 2074.8 3207.15 1825.57C3511.33 1618.54 3593.99 1585.41 3622.6 1221.21C3651.23 857.002 3771.64 726.005 3959.51 790.999C4101.2 840.019 4173.51 1128.85 3966.03 1421.21C3758.54 1713.57 3624.27 1770.16 3665.53 1976.32C3718.35 2240.22 3618.63 2374.71 3437.38 2316.98C3189.33 2237.96 3165.02 2203.42 3036.24 2413.71L2841.4 2398.98" fill="#A3A237"/>
<path d="M2887.16 2442.65C2886.32 2442.65 2885.47 2442.5 2884.67 2442.18C2881.34 2440.88 2879.77 2437.28 2881.13 2434.15C2977.4 2215.2 3058.46 2147.17 3125.06 2109.52C3198.55 2067.97 3249.52 2084.87 3303.49 2102.75C3332.74 2112.44 3362.99 2122.46 3399.66 2124.87C3431.07 2126.97 3455.53 2120.43 3474.18 2104.95C3509.56 2075.58 3517.42 2017.43 3520.31 1970.05C3530.52 1802.41 3620.27 1657.17 3707.05 1516.72C3818.58 1336.18 3923.94 1165.67 3877.9 949.829C3877.19 946.498 3879.47 943.267 3883.01 942.591C3886.49 941.915 3889.97 944.078 3890.69 947.408C3937.69 1167.82 3826.17 1348.34 3718.31 1522.9C3632.29 1662.1 3543.36 1806.06 3533.32 1970.76C3530.29 2020.52 3521.8 2081.79 3482.78 2114.18C3461.71 2131.67 3433.51 2139.43 3398.73 2137.13C3360.33 2134.6 3329.22 2124.3 3299.16 2114.34C3245.96 2096.7 3199.97 2081.48 3131.76 2120.05C3067 2156.68 2988 2223.2 2893.18 2438.85C2892.14 2441.22 2889.72 2442.65 2887.16 2442.65" fill="#B2C257"/>
<path d="M3666.98 2594.54C3689.11 2577.73 3842.37 2289.01 3842.37 1994.39C3842.37 1630.99 3625.65 1471.94 3365.88 1255.24C3197.75 1114.98 3507.91 766.253 3306.72 682.899C3105.55 599.545 2810.84 910.718 2869.61 1094.1C2928.36 1277.46 3131.86 1244.13 3187.07 1438.61C3213.48 1531.69 3028.29 1654.34 3131.86 1810.47C3226.33 1952.84 3530.78 1802.25 3502.48 2218.14C3482.43 2512.75 3435.64 2583.96 3435.64 2583.96L3666.98 2594.54" fill="#A3A237"/>
<path d="M3568.92 2596.2C3568.05 2596.2 3567.18 2596.04 3566.32 2595.68C3563.03 2594.34 3561.5 2590.72 3562.94 2587.61C3565.15 2582.82 3782.25 2104.15 3660.85 1791.85C3586.68 1600.97 3439.83 1468.8 3297.84 1340.98C3237.59 1286.75 3180.68 1235.53 3129.77 1180.56C2974.94 1013.36 3179.99 779.929 3182.07 777.594C3184.41 775.001 3188.51 774.657 3191.26 776.857C3194.01 779.032 3194.37 782.915 3192.06 785.508C3190.03 787.769 2992.13 1013.23 3139.6 1172.49C3190.1 1227.03 3246.81 1278.06 3306.84 1332.09C3449.92 1460.89 3597.86 1594.06 3673.1 1787.63C3796.29 2104.56 3577.13 2587.66 3574.91 2592.5C3573.84 2594.82 3571.44 2596.2 3568.92 2596.2Z" fill="#B2C257"/>
<path d="M3511.39 2375.33C3508.18 2375.33 3505.38 2373.09 3504.95 2370.01C3425.14 1809.05 3077.56 1461.13 2800.03 1268.02C2499.17 1058.69 2213.77 981.169 2210.94 980.407C2207.46 979.486 2205.45 976.094 2206.43 972.825C2207.4 969.557 2210.99 967.627 2214.47 968.586C2217.34 969.348 2505.03 1047.49 2807.77 1258.13C3087.33 1452.65 3437.45 1803.16 3517.85 2368.37C3518.35 2371.73 3515.83 2374.82 3512.27 2375.28C3511.97 2375.31 3511.69 2375.33 3511.39 2375.33Z" fill="#B2C257"/>
<path d="M3805.87 2600.23C3847.2 2562.74 3794.98 1957.28 3451.78 1617.93C2933.33 1105.31 2485.88 928.769 2241.5 912.106C2050.67 899.092 2002.06 1004.42 2172.63 1044.26C2343.2 1084.08 2466.46 1178.77 2434.42 1339.06C2402.37 1499.35 2526.71 1571.29 2642.04 1522.91C2757.36 1474.52 2987.78 1429.7 3079.64 1683.17C3171.52 1936.63 3056.3 2191.36 3320.99 2287.1C3585.68 2382.83 3620.22 2732.81 3620.22 2732.81L3805.87 2600.23Z" fill="#A3A237"/>
<path d="M3593.52 2732.27C3593.52 2732.27 3436.78 2334.23 3600.92 2192.56C3765.06 2050.9 3896.94 2096.54 3877.71 1758.68C3860.44 1455.16 4006.88 1462.83 4039.78 1540.47C4060.38 1589.07 4145.19 1934.58 4051.32 2084.12C3957.46 2233.66 3757.86 2229.37 3768.92 2502.42C3779.97 2775.46 3768.92 2856.4 3768.92 2856.4L3593.52 2732.27Z" fill="#B2C257"/>
<path d="M3978.08 2817.44C4017.33 2817.44 4108.14 2812.34 4170.14 2769.1C4210.96 2740.62 4231.7 2702 4231.7 2654.24C4231.7 2601.43 4210.38 2559.97 4168.3 2530.92C4100.31 2483.98 4004.25 2490.15 4000.16 2490.4L4007.75 2554.67C4008.4 2554.73 4071.4 2551.16 4111.14 2578.81C4134.56 2595.13 4146.39 2620.53 4146.39 2654.24C4146.39 2683.67 4135.22 2705.71 4112.31 2721.65C4061.07 2757.38 3966.93 2752.67 3966.01 2752.67L3959 2816.94C3960.17 2817 3967.08 2817.44 3978.08 2817.44Z" fill="#71ACDA"/>
<path d="M4028.16 2358H3404L3496.47 2949.45H3931.07L4028.16 2358Z" fill="#71ACDA"/>
<path d="M4202.46 3266.94H2700.3C2684.12 3266.94 2671 3253.82 2671 3237.62V2959.32C2671 2943.14 2684.12 2930 2700.3 2930H4202.46C4218.65 2930 4231.77 2943.14 4231.77 2959.32V3237.62C4231.77 3253.82 4218.65 3266.94 4202.46 3266.94Z" fill="#DF9B58"/>
<path d="M1357.54 3008.42V3207.62C1357.54 3222.22 1345.71 3234.05 1331.12 3234.05H77.422C62.8311 3234.05 51 3222.22 51 3207.62V3008.42C51 2993.83 62.8311 2982 77.422 2982H1331.12C1345.71 2982 1357.54 2993.83 1357.54 3008.42Z" fill="#DF9B58"/>
<path d="M3372.14 3258.97H776.038C666.67 3258.97 578.008 3170.31 578.008 3060.94V2956.66H3570.18V3060.94C3570.18 3170.31 3481.52 3258.97 3372.14 3258.97Z" fill="#C0DCF6"/>
<path d="M2387.08 3523.51H1773V3258.97H2387.08V3523.51Z" fill="#71ACDA"/>
<path d="M3570.19 2961.57H578V1351.55C578 1275.04 640.026 1213 716.548 1213H3431.64C3508.15 1213 3570.19 1275.04 3570.19 1351.55V2961.57Z" fill="#214A81"/>
<path d="M3467.33 2853.61H699.559V1338.81H3467.33V2853.61Z" fill="#D6E7F6"/>
<path d="M2141.68 3094.28C2141.68 3131.62 2111.42 3161.86 2074.1 3161.86C2036.77 3161.86 2006.5 3131.62 2006.5 3094.28C2006.5 3056.96 2036.77 3026.7 2074.1 3026.7C2111.42 3026.7 2141.68 3056.96 2141.68 3094.28Z" fill="white"/>
<path d="M2649.78 3612.05H1499.13C1499.13 3563.14 1538.76 3523.51 1587.68 3523.51H2561.23C2610.13 3523.51 2649.78 3563.14 2649.78 3612.05Z" fill="#C0DCF6"/>
<path d="M1257.98 3391.25H838.574V3143.88H1257.98V3391.25Z" fill="white"/>
<path d="M1116.75 3190.14H963.672V3097.63H1116.75V3190.14Z" fill="#214A81"/>
<path d="M3205.63 2701.27H2083.22C2053.46 2701.27 2029.32 2677.14 2029.32 2647.37V1577.45C2029.32 1547.7 2053.46 1523.56 2083.22 1523.56H3205.63C3235.4 1523.56 3259.53 1547.7 3259.53 1577.45V2647.37C3259.53 2677.14 3235.4 2701.27 3205.63 2701.27Z" fill="white"/>
<path d="M1755.59 2701.27H954.478C923.738 2701.27 898.818 2676.35 898.818 2645.61V2096.58C898.818 2065.83 923.738 2040.92 954.478 2040.92H1755.59C1786.33 2040.92 1811.25 2065.83 1811.25 2096.58V2645.61C1811.25 2676.35 1786.33 2701.27 1755.59 2701.27Z" fill="white"/>
<path d="M1687.85 2508.15H1021.49C1011.07 2508.15 1002.63 2499.71 1002.63 2489.3V2487.51C1002.63 2477.08 1011.07 2468.64 1021.49 2468.64H1687.85C1698.26 2468.64 1706.7 2477.08 1706.7 2487.51V2489.3C1706.7 2499.71 1698.26 2508.15 1687.85 2508.15Z" fill="#D6E7F6"/>
<path d="M1401.3 2600.94H1021.5C1011.07 2600.94 1002.63 2592.5 1002.63 2582.09V2580.28C1002.63 2569.87 1011.07 2561.43 1021.5 2561.43H1401.3C1411.7 2561.43 1420.15 2569.87 1420.15 2580.28V2582.09C1420.15 2592.5 1411.7 2600.94 1401.3 2600.94Z" fill="#D6E7F6"/>
<path d="M1230.15 2242.57C1230.15 2311.83 1173.99 2367.99 1104.71 2367.99C1035.44 2367.99 979.281 2311.83 979.281 2242.57C979.281 2173.3 1035.44 2117.14 1104.71 2117.14C1173.99 2117.14 1230.15 2173.3 1230.15 2242.57Z" fill="#83B3FD"/>
<path d="M1420.15 1697.85H925.383C914.975 1697.85 906.518 1689.41 906.518 1679V1677.19C906.518 1666.77 914.975 1658.33 925.383 1658.33H1420.15C1430.56 1658.33 1439 1666.77 1439 1677.19V1679C1439 1689.41 1430.56 1697.85 1420.15 1697.85Z" fill="white"/>
<path d="M1621.77 1946.64H925.381C914.973 1946.64 906.531 1938.2 906.531 1927.79V1926C906.531 1915.57 914.973 1907.13 925.381 1907.13H1621.77C1632.18 1907.13 1640.62 1915.57 1640.62 1926V1927.79C1640.62 1938.2 1632.18 1946.64 1621.77 1946.64Z" fill="white"/>
<path d="M1787.44 1821.72H925.377C914.969 1821.72 906.527 1813.28 906.527 1802.87V1801.06C906.527 1790.64 914.969 1782.2 925.377 1782.2H1787.44C1797.84 1782.2 1806.28 1790.64 1806.28 1801.06V1802.87C1806.28 1813.28 1797.84 1821.72 1787.44 1821.72Z" fill="white"/>
<path d="M3031.53 2506.43H2261.36V1736.26H3031.53V2506.43Z" fill="#83B3FD"/>
<path d="M2944.37 2069.75C2944.37 2135.16 2891.35 2188.2 2825.92 2188.2C2760.51 2188.2 2707.47 2135.16 2707.47 2069.75C2707.47 2004.34 2760.51 1951.3 2825.92 1951.3C2891.35 1951.3 2944.37 2004.34 2944.37 2069.75Z" fill="#C0DCF6"/>
<path d="M2674.73 2265.1L2812.23 2100.68L3041.35 2307.67V2506.42H2674.73V2265.1Z" fill="white"/>
<path d="M2261.36 2262.12L2416.62 2023.81L2910.97 2506.41H2261.36V2262.12Z" fill="#214A81"/>
<path d="M543.602 2982.22H344.429C329.832 2982.22 318 2970.38 318 2955.78V1599.43C318 1584.83 329.832 1573 344.429 1573H543.602C558.199 1573 570.031 1584.83 570.031 1599.43V2955.78C570.031 2970.38 558.199 2982.22 543.602 2982.22Z" fill="#BACBF1"/>
<path d="M290.344 2988.6H79.0372C63.5521 2988.6 51 2976.75 51 2962.15V2154.43C51 2139.83 63.5521 2128 79.0372 2128H290.344C305.83 2128 318.384 2139.83 318.384 2154.43V2962.15C318.384 2976.75 305.83 2988.6 290.344 2988.6Z" fill="#BCE5D7"/>
</svg>
