<svg width="64" height="64" viewBox="0 0 64 64" fill="none" xmlns="http://www.w3.org/2000/svg">
<path d="M54.547 27.5033C47.0247 27.4996 39.5025 27.5015 31.9803 27.5024C31.9812 30.6249 31.9766 33.7474 31.9821 36.8689C36.3385 36.868 40.6948 36.8671 45.0503 36.8689C44.5455 39.8611 42.7687 42.5974 40.249 44.2819C38.6651 45.3478 36.8452 46.0396 34.9691 46.3686C33.0808 46.6911 31.1297 46.7323 29.2462 46.3507C27.3307 45.9682 25.5023 45.1696 23.9073 44.0437C21.3568 42.2504 19.4104 39.6267 18.411 36.6738C17.3891 33.6704 17.3816 30.3285 18.4156 27.3279C19.1331 25.2131 20.3274 23.2596 21.8962 21.6698C23.8313 19.6871 26.3472 18.2698 29.0578 17.6886C31.3789 17.1927 33.8263 17.2874 36.0987 17.9754C38.0301 18.5623 39.8107 19.6215 41.269 21.0154C42.7433 19.5483 44.2101 18.0729 45.6816 16.6031C46.4534 15.8119 47.2646 15.0554 48.012 14.2427C45.7772 12.1729 43.1574 10.509 40.2949 9.45723C35.1414 7.55908 29.3295 7.51879 24.1414 9.31588C18.2948 11.3191 13.3165 15.6949 10.5562 21.2256C9.59523 23.1314 8.89362 25.1655 8.47214 27.2578C7.41183 32.4706 8.15087 38.0286 10.5534 42.7765C12.1148 45.8755 14.3534 48.6306 17.0688 50.7904C19.6306 52.8349 22.6165 54.345 25.7825 55.1878C29.7773 56.2602 34.0296 56.2358 38.0508 55.32C41.685 54.4829 45.1234 52.7449 47.8687 50.2083C50.7705 47.5395 52.8404 44.0232 53.9363 40.2446C55.1315 36.1229 55.2964 31.7226 54.547 27.5033Z"/>
</svg>
