<svg width="64" height="64" viewBox="0 0 64 64" fill="none" xmlns="http://www.w3.org/2000/svg">
<path d="M61.7098 33.0935C61.0478 34.8575 59.4078 35.9975 57.5298 35.9975H56.0018V57.9975C56.0018 59.1015 55.1058 59.9975 54.0018 59.9975H42.0018V45.9975C42.0018 40.4835 37.5158 35.9975 32.0018 35.9975C26.4878 35.9975 22.0018 40.4835 22.0018 45.9975V59.9975H10.0018C8.89776 59.9975 8.00176 59.1015 8.00176 57.9975V35.9975H6.47176C4.59376 35.9975 2.95376 34.8595 2.29176 33.0955C1.62976 31.3315 2.11576 29.3915 3.53176 28.1555L26.8898 6.0355C29.7578 3.3215 34.2478 3.3215 37.1138 6.0355L60.5278 28.2075C61.8838 29.3895 62.3718 31.3295 61.7098 33.0935Z" />
</svg>
