<svg width="64" height="64" viewBox="0 0 64 64" fill="none" xmlns="http://www.w3.org/2000/svg">
<rect x="5.96948" y="31.6962" width="5.17073" height="4.86076" rx="2.43038" />
<rect x="51.5365" y="31.6962" width="5.17073" height="4.86076" rx="2.43038" />
<path fill-rule="evenodd" clip-rule="evenodd" d="M25.0367 15.4329C25.0367 11.3278 28.3646 8 32.4696 8C36.5747 8 39.9026 11.3278 39.9026 15.4329V38.9873H32.4696H25.0367V15.4329ZM32.4695 48.7089L25.0366 38.9873H39.9025L32.4695 48.7089ZM34.5701 12.8608C33.7669 12.8608 33.1158 13.5119 33.1158 14.3151V37.2293C33.1158 38.0325 33.7669 38.6836 34.5701 38.6836C35.3733 38.6836 36.0244 38.0325 36.0244 37.2293V14.315C36.0244 13.5119 35.3733 12.8608 34.5701 12.8608Z" />
<rect x="5" y="52.6582" width="53" height="3.34177" />
<rect width="15.4697" height="3.04735" transform="matrix(0.978899 0.204344 -0.229895 0.973215 6.67017 44.4557)" />
<rect width="9.54862" height="3.0891" transform="matrix(0.874669 0.48472 -0.531283 0.847194 15.0436 38.0759)" />
<rect width="9.54862" height="3.0891" transform="matrix(0.874669 -0.48472 0.531283 0.847194 39.2561 42.7043)" />
<rect width="15.4697" height="3.04735" transform="matrix(0.978899 -0.204344 0.229895 0.973215 40.8719 47.6169)" />
</svg>
