<svg width="64" height="64" viewBox="0 0 64 64" fill="none" xmlns="http://www.w3.org/2000/svg">
<path d="M48 8C52.9706 8 57 12.7405 57 18.5882V37.4118C57 43.2595 52.9706 48 48 48H16C11.0294 48 7 43.2595 7 37.4118V18.5882C7 12.7405 11.0294 8 16 8H48ZM48 13.8824H16C13.8578 13.8824 12.1089 15.8635 12.0049 18.3534L12 18.5882V37.4118C12 39.932 13.684 41.9895 15.8004 42.1119L16 42.1176H48C50.1422 42.1176 51.8911 40.1365 51.9951 37.6466L52 37.4118V18.5882C52 16.068 50.316 14.0105 48.1996 13.8881L48 13.8824Z"/>
<path fill-rule="evenodd" clip-rule="evenodd" d="M21.5 50H43.5C44.8807 50 46 51.1193 46 52.5C46 53.8807 44.8807 55 43.5 55H21.5C20.1193 55 19 53.8807 19 52.5C19 51.1193 20.1193 50 21.5 50Z" />
<path d="M23.9004 19.5033C23.0738 19.5584 22.4483 20.2732 22.5034 21.0998L23.4014 34.5699C23.4565 35.3965 24.1713 36.0219 24.9979 35.9668C25.8244 35.9117 26.4499 35.1969 26.3948 34.3703L25.5966 22.3969L37.57 21.5987C38.3966 21.5436 39.022 20.8289 38.9669 20.0023C38.9118 19.1757 38.197 18.5503 37.3705 18.6054L23.9004 19.5033ZM40.9878 33.8711L24.9879 19.8711L23.0124 22.1289L39.0122 36.1289L40.9878 33.8711Z" />
</svg>
