<svg width="64" height="64" viewBox="0 0 64 64" fill="none" xmlns="http://www.w3.org/2000/svg">
<path d="M43.25 13.9062H40.75V9.65625C40.75 9.1375 40.3313 8.71875 39.8125 8.71875H24.1875C23.6687 8.71875 23.25 9.1375 23.25 9.65625V13.9062H20.75V9.65625C20.75 7.7625 22.2938 6.21875 24.1875 6.21875H39.8125C41.7062 6.21875 43.25 7.7625 43.25 9.65625V13.9062Z" />
<path d="M59.1875 20.7875V31.5375H37.4375V29.475C37.4375 28.2 36.4 27.1625 35.125 27.1625H28.875C27.6 27.1625 26.5625 28.2 26.5625 29.475V31.5063L6.6875 31.5313H5.75H4.8125V20.7813C4.8125 18.6438 6.55 16.9062 8.6875 16.9062H55.3125C57.45 16.9125 59.1875 18.65 59.1875 20.7875Z" />
<path d="M59.1875 34.5625V54.3125C59.1875 56.45 57.45 58.1875 55.3125 58.1875H8.6875C6.55 58.1875 4.8125 56.45 4.8125 54.3125V34.5625H5.75H6.6875L26.5625 34.5375V36.3812C26.5625 37.6562 27.6 38.6937 28.875 38.6937H35.125C36.4 38.6937 37.4375 37.6562 37.4375 36.3812V34.5687H59.1875V34.5625Z" />
</svg>
