<svg width="64" height="64" viewBox="0 0 64 64" fill="none" xmlns="http://www.w3.org/2000/svg">
<path d="M45.12 33.0601C41.4903 36.2428 36.8275 37.9976 32 37.9976C27.1725 37.9976 22.5097 36.2428 18.88 33.0601C13.8251 35.5183 9.56254 39.3471 6.57807 44.1103C3.5936 48.8734 2.00731 54.3792 2 60.0001C2 60.5305 2.21071 61.0392 2.58579 61.4143C2.96086 61.7893 3.46957 62.0001 4 62.0001H60C60.5304 62.0001 61.0391 61.7893 61.4142 61.4143C61.7893 61.0392 62 60.5305 62 60.0001C61.9927 54.3792 60.4064 48.8734 57.4219 44.1103C54.4375 39.3471 50.1749 35.5183 45.12 33.0601V33.0601Z"/>
<path d="M32 34C40.8366 34 48 26.8366 48 18C48 9.16344 40.8366 2 32 2C23.1634 2 16 9.16344 16 18C16 26.8366 23.1634 34 32 34Z" />
</svg>
